<?xml version="1.0" encoding="utf-8"?>
<!-- Generator: Adobe Illustrator 24.3.0, SVG Export Plug-In . SVG Version: 6.00 Build 0)  -->
<svg version="1.1" id="Layer_1" xmlns="http://www.w3.org/2000/svg" xmlns:xlink="http://www.w3.org/1999/xlink" x="0px" y="0px"
	 viewBox="0 0 595.28 595.28" style="enable-background:new 0 0 595.28 595.28;" xml:space="preserve">
<style type="text/css">
	.st0{fill:#FB9934;}
</style>
<g>
	<g>
		<g>
			<g>
				<path class="st0" d="M76.29,282.79v-35.55h17.37c4.47,0,7.83,0.85,10.08,2.54c2.25,1.69,3.38,3.93,3.38,6.7
					c0,1.86-0.46,3.48-1.37,4.85s-2.18,2.43-3.78,3.17c-1.61,0.75-3.43,1.12-5.46,1.12l0.96-2.13c2.23,0,4.21,0.37,5.92,1.12
					c1.71,0.75,3.06,1.83,4.04,3.25c0.98,1.42,1.47,3.17,1.47,5.23c0,3.05-1.2,5.43-3.61,7.14c-2.41,1.71-5.94,2.56-10.62,2.56
					H76.29z M84.46,276.6h9.65c2.1,0,3.71-0.36,4.83-1.07c1.12-0.71,1.68-1.81,1.68-3.3c0-1.52-0.56-2.64-1.68-3.35
					c-1.12-0.71-2.73-1.07-4.83-1.07H83.85v-5.99h8.79c2,0,3.53-0.35,4.6-1.04c1.07-0.69,1.6-1.75,1.6-3.17
					c0-1.42-0.53-2.47-1.6-3.15c-1.07-0.68-2.6-1.02-4.6-1.02h-8.18V276.6z"/>
				<path class="st0" d="M128.14,283.2c-3.12,0-5.84-0.61-8.18-1.83c-2.34-1.22-4.15-2.89-5.43-5c-1.29-2.12-1.93-4.53-1.93-7.24
					c0-2.71,0.62-5.13,1.85-7.26c1.24-2.13,2.96-3.8,5.18-5c2.22-1.2,4.71-1.8,7.49-1.8c2.67,0,5.09,0.58,7.24,1.73
					c2.15,1.15,3.85,2.78,5.11,4.88c1.25,2.1,1.88,4.62,1.88,7.57c0,0.3-0.02,0.65-0.05,1.04c-0.03,0.39-0.07,0.75-0.1,1.09H119
					v-4.62h18.03l-3.1,1.37c0.03-1.42-0.24-2.66-0.81-3.71c-0.58-1.05-1.37-1.87-2.39-2.46c-1.02-0.59-2.2-0.89-3.56-0.89
					c-1.36,0-2.55,0.3-3.58,0.89c-1.03,0.59-1.84,1.42-2.41,2.49c-0.58,1.07-0.86,2.33-0.86,3.78v1.22c0,1.52,0.34,2.84,1.02,3.96
					c0.68,1.12,1.61,1.97,2.79,2.56c1.18,0.59,2.61,0.89,4.27,0.89c1.42,0,2.68-0.22,3.78-0.66c1.1-0.44,2.11-1.1,3.02-1.98
					l4.22,4.57c-1.25,1.42-2.83,2.51-4.72,3.28C132.8,282.82,130.62,283.2,128.14,283.2z"/>
				<path class="st0" d="M155.83,283.2c-2.34,0-4.57-0.28-6.71-0.84c-2.13-0.56-3.84-1.26-5.13-2.11l2.59-5.64
					c1.29,0.75,2.79,1.36,4.5,1.85c1.71,0.49,3.39,0.74,5.05,0.74c1.83,0,3.12-0.22,3.89-0.66c0.76-0.44,1.14-1.05,1.14-1.83
					c0-0.64-0.3-1.12-0.89-1.45c-0.59-0.32-1.37-0.57-2.34-0.74c-0.96-0.17-2.04-0.34-3.22-0.51c-1.19-0.17-2.36-0.41-3.53-0.71
					s-2.25-0.74-3.25-1.3c-1-0.56-1.79-1.33-2.39-2.31c-0.59-0.98-0.89-2.25-0.89-3.81c0-1.73,0.51-3.26,1.52-4.6
					c1.02-1.34,2.45-2.38,4.32-3.12c1.86-0.74,4.11-1.12,6.75-1.12c1.9,0,3.8,0.21,5.71,0.64c1.91,0.42,3.53,1.01,4.85,1.75
					l-2.69,5.64c-1.29-0.74-2.6-1.27-3.94-1.57s-2.62-0.46-3.83-0.46c-1.83,0-3.15,0.24-3.96,0.71c-0.81,0.47-1.22,1.08-1.22,1.83
					c0,0.68,0.3,1.19,0.91,1.55s1.41,0.62,2.39,0.79c0.98,0.17,2.06,0.34,3.25,0.51c1.18,0.17,2.35,0.41,3.5,0.71
					s2.23,0.74,3.23,1.29c1,0.56,1.79,1.33,2.39,2.31c0.59,0.98,0.89,2.25,0.89,3.81c0,1.66-0.51,3.14-1.52,4.44
					c-1.02,1.3-2.48,2.33-4.39,3.07C160.9,282.83,158.57,283.2,155.83,283.2z"/>
				<path class="st0" d="M173.6,292.65v-37.18h7.57v5.59l-0.15,8.13l0.51,8.08v15.39H173.6z M189.7,283.2
					c-2.27,0-4.27-0.51-5.99-1.52c-1.73-1.02-3.07-2.56-4.04-4.65s-1.45-4.71-1.45-7.9c0-3.22,0.46-5.86,1.37-7.92
					c0.91-2.06,2.24-3.61,3.99-4.62c1.74-1.02,3.78-1.52,6.12-1.52c2.61,0,4.93,0.58,6.98,1.75s3.67,2.8,4.88,4.9
					c1.2,2.1,1.8,4.57,1.8,7.42c0,2.88-0.6,5.36-1.8,7.44s-2.83,3.71-4.88,4.88C194.64,282.62,192.31,283.2,189.7,283.2z
					 M188.38,276.7c1.32,0,2.5-0.3,3.53-0.91c1.03-0.61,1.86-1.48,2.49-2.62c0.63-1.13,0.94-2.48,0.94-4.04
					c0-1.59-0.31-2.95-0.94-4.06c-0.63-1.12-1.46-1.97-2.49-2.56c-1.03-0.59-2.21-0.89-3.53-0.89c-1.32,0-2.51,0.3-3.56,0.89
					c-1.05,0.59-1.89,1.45-2.51,2.56c-0.63,1.12-0.94,2.47-0.94,4.06c0,1.56,0.31,2.9,0.94,4.04c0.63,1.13,1.46,2.01,2.51,2.62
					C185.88,276.4,187.06,276.7,188.38,276.7z"/>
				<path class="st0" d="M221.6,283.2c-2.88,0-5.44-0.61-7.7-1.83c-2.25-1.22-4.02-2.89-5.31-5c-1.29-2.12-1.93-4.53-1.93-7.24
					c0-2.74,0.64-5.17,1.93-7.29c1.29-2.12,3.06-3.78,5.31-4.98c2.25-1.2,4.82-1.8,7.7-1.8c2.91,0,5.5,0.6,7.77,1.8
					c2.27,1.2,4.05,2.86,5.33,4.98c1.29,2.12,1.93,4.55,1.93,7.29c0,2.74-0.64,5.16-1.93,7.26c-1.29,2.1-3.07,3.76-5.33,4.98
					C227.1,282.59,224.51,283.2,221.6,283.2z M221.6,276.7c1.35,0,2.55-0.3,3.58-0.89c1.03-0.59,1.86-1.46,2.49-2.62
					c0.63-1.15,0.94-2.51,0.94-4.06c0-1.59-0.31-2.95-0.94-4.06c-0.63-1.12-1.46-1.97-2.49-2.56c-1.03-0.59-2.21-0.89-3.53-0.89
					s-2.51,0.3-3.56,0.89c-1.05,0.59-1.89,1.45-2.51,2.56c-0.63,1.12-0.94,2.47-0.94,4.06c0,1.56,0.31,2.91,0.94,4.06
					c0.63,1.15,1.46,2.02,2.51,2.62C219.15,276.4,220.31,276.7,221.6,276.7z"/>
				<path class="st0" d="M241.92,282.79v-37.69h7.92v37.69H241.92z M248.47,277.21l0.2-9.7l12.75-12.04h9.45l-12.24,12.44l-4.11,3.4
					L248.47,277.21z M262.29,282.79l-9.25-11.48l4.98-6.15l13.87,17.62H262.29z"/>
				<path class="st0" d="M289,283.2c-3.12,0-5.84-0.61-8.18-1.83c-2.34-1.22-4.15-2.89-5.43-5c-1.29-2.12-1.93-4.53-1.93-7.24
					c0-2.71,0.62-5.13,1.85-7.26c1.24-2.13,2.96-3.8,5.18-5c2.22-1.2,4.71-1.8,7.49-1.8c2.67,0,5.09,0.58,7.24,1.73
					c2.15,1.15,3.85,2.78,5.11,4.88c1.25,2.1,1.88,4.62,1.88,7.57c0,0.3-0.02,0.65-0.05,1.04c-0.03,0.39-0.07,0.75-0.1,1.09h-22.2
					v-4.62h18.03l-3.1,1.37c0.03-1.42-0.24-2.66-0.81-3.71c-0.58-1.05-1.37-1.87-2.39-2.46c-1.02-0.59-2.2-0.89-3.56-0.89
					c-1.36,0-2.55,0.3-3.58,0.89c-1.03,0.59-1.84,1.42-2.41,2.49c-0.58,1.07-0.86,2.33-0.86,3.78v1.22c0,1.52,0.34,2.84,1.02,3.96
					c0.68,1.12,1.61,1.97,2.79,2.56c1.18,0.59,2.61,0.89,4.27,0.89c1.42,0,2.68-0.22,3.78-0.66c1.1-0.44,2.11-1.1,3.02-1.98
					l4.22,4.57c-1.25,1.42-2.83,2.51-4.72,3.28C293.66,282.82,291.47,283.2,289,283.2z"/>
				<path d="M339.44,283.4c-2.74,0-5.29-0.45-7.64-1.35c-2.35-0.9-4.39-2.18-6.12-3.83c-1.73-1.66-3.07-3.61-4.04-5.84
					s-1.45-4.69-1.45-7.36c0-2.67,0.48-5.13,1.45-7.37s2.32-4.18,4.06-5.84c1.74-1.66,3.79-2.94,6.15-3.83
					c2.35-0.9,4.9-1.35,7.64-1.35c3.08,0,5.87,0.53,8.38,1.6c2.5,1.07,4.6,2.63,6.3,4.7l-5.33,4.88c-1.19-1.39-2.53-2.44-4.04-3.15
					s-3.14-1.07-4.9-1.07c-1.66,0-3.18,0.28-4.57,0.84c-1.39,0.56-2.59,1.35-3.61,2.36s-1.8,2.22-2.36,3.61
					c-0.56,1.39-0.84,2.93-0.84,4.62c0,1.69,0.28,3.23,0.84,4.62c0.56,1.39,1.35,2.59,2.36,3.61c1.02,1.02,2.22,1.8,3.61,2.36
					c1.39,0.56,2.91,0.84,4.57,0.84c1.76,0,3.39-0.36,4.9-1.09c1.51-0.73,2.85-1.79,4.04-3.17l5.33,4.88
					c-1.69,2.07-3.79,3.64-6.3,4.72C345.36,282.86,342.55,283.4,339.44,283.4z"/>
				<path d="M370.62,283.2c-2.3,0-4.33-0.44-6.09-1.32c-1.76-0.88-3.13-2.23-4.11-4.06c-0.98-1.83-1.47-4.13-1.47-6.91v-15.44h7.92
					v14.22c0,2.3,0.48,3.99,1.45,5.05c0.96,1.07,2.33,1.6,4.09,1.6c1.22,0,2.3-0.27,3.25-0.81c0.95-0.54,1.7-1.35,2.26-2.44
					c0.56-1.08,0.84-2.44,0.84-4.06v-13.56h7.87v27.33h-7.52v-7.57l1.37,2.23c-0.95,1.9-2.3,3.33-4.06,4.29
					C374.65,282.72,372.72,283.2,370.62,283.2z"/>
				<path d="M403.18,283.2c-2.34,0-4.57-0.28-6.71-0.84c-2.13-0.56-3.84-1.26-5.13-2.11l2.59-5.64c1.29,0.75,2.79,1.36,4.5,1.85
					c1.71,0.49,3.39,0.74,5.05,0.74c1.83,0,3.12-0.22,3.89-0.66c0.76-0.44,1.14-1.05,1.14-1.83c0-0.64-0.3-1.12-0.89-1.45
					c-0.59-0.32-1.37-0.57-2.34-0.74c-0.96-0.17-2.04-0.34-3.22-0.51c-1.19-0.17-2.36-0.41-3.53-0.71s-2.25-0.74-3.25-1.3
					c-1-0.56-1.79-1.33-2.39-2.31c-0.59-0.98-0.89-2.25-0.89-3.81c0-1.73,0.51-3.26,1.52-4.6c1.02-1.34,2.45-2.38,4.32-3.12
					c1.86-0.74,4.11-1.12,6.75-1.12c1.9,0,3.8,0.21,5.71,0.64c1.91,0.42,3.53,1.01,4.85,1.75l-2.69,5.64
					c-1.29-0.74-2.6-1.27-3.94-1.57s-2.62-0.46-3.83-0.46c-1.83,0-3.15,0.24-3.96,0.71c-0.81,0.47-1.22,1.08-1.22,1.83
					c0,0.68,0.3,1.19,0.91,1.55s1.41,0.62,2.39,0.79c0.98,0.17,2.06,0.34,3.25,0.51c1.18,0.17,2.35,0.41,3.5,0.71
					s2.23,0.74,3.23,1.29c1,0.56,1.79,1.33,2.39,2.31c0.59,0.98,0.89,2.25,0.89,3.81c0,1.66-0.51,3.14-1.52,4.44
					c-1.02,1.3-2.48,2.33-4.39,3.07C408.25,282.83,405.93,283.2,403.18,283.2z"/>
				<path d="M417.71,262.17v-6.09h18.95v6.09H417.71z M432.13,283.2c-3.22,0-5.72-0.82-7.52-2.46c-1.8-1.64-2.69-4.09-2.69-7.34
					v-23.97h7.97v23.82c0,1.15,0.3,2.05,0.89,2.69c0.59,0.64,1.4,0.96,2.41,0.96c1.29,0,2.37-0.34,3.25-1.02l2.08,5.59
					c-0.78,0.58-1.74,1.01-2.87,1.3S433.35,283.2,432.13,283.2z"/>
				<path d="M456.01,283.2c-2.88,0-5.44-0.61-7.7-1.83c-2.25-1.22-4.02-2.89-5.31-5c-1.29-2.12-1.93-4.53-1.93-7.24
					c0-2.74,0.64-5.17,1.93-7.29c1.29-2.12,3.06-3.78,5.31-4.98c2.25-1.2,4.82-1.8,7.7-1.8c2.91,0,5.5,0.6,7.77,1.8
					c2.27,1.2,4.05,2.86,5.33,4.98c1.29,2.12,1.93,4.55,1.93,7.29c0,2.74-0.64,5.16-1.93,7.26c-1.29,2.1-3.07,3.76-5.33,4.98
					C461.51,282.59,458.92,283.2,456.01,283.2z M456.01,276.7c1.35,0,2.55-0.3,3.58-0.89c1.03-0.59,1.86-1.46,2.49-2.62
					c0.63-1.15,0.94-2.51,0.94-4.06c0-1.59-0.31-2.95-0.94-4.06c-0.63-1.12-1.46-1.97-2.49-2.56c-1.03-0.59-2.21-0.89-3.53-0.89
					s-2.51,0.3-3.56,0.89c-1.05,0.59-1.89,1.45-2.51,2.56c-0.63,1.12-0.94,2.47-0.94,4.06c0,1.56,0.31,2.91,0.94,4.06
					c0.63,1.15,1.46,2.02,2.51,2.62C453.55,276.4,454.72,276.7,456.01,276.7z"/>
				<path d="M511.32,255.06c2.17,0,4.09,0.43,5.76,1.3c1.68,0.86,2.99,2.18,3.94,3.96c0.95,1.78,1.42,4.06,1.42,6.83v15.64h-7.92
					v-14.43c0-2.2-0.45-3.83-1.35-4.88c-0.9-1.05-2.16-1.57-3.78-1.57c-1.19,0-2.23,0.26-3.15,0.79c-0.91,0.53-1.62,1.3-2.11,2.34
					c-0.49,1.03-0.74,2.38-0.74,4.04v13.71h-7.92v-14.43c0-2.2-0.45-3.83-1.35-4.88c-0.9-1.05-2.19-1.57-3.89-1.57
					c-1.15,0-2.18,0.26-3.1,0.79c-0.91,0.53-1.62,1.3-2.13,2.34c-0.51,1.03-0.76,2.38-0.76,4.04v13.71h-7.92v-27.33h7.57v7.42
					l-1.42-2.13c0.91-1.86,2.25-3.28,4.01-4.24c1.76-0.97,3.74-1.45,5.94-1.45c2.5,0,4.71,0.64,6.6,1.9
					c1.9,1.27,3.15,3.21,3.76,5.82l-2.79-0.76c0.92-2.1,2.37-3.78,4.37-5.05C506.36,255.7,508.68,255.06,511.32,255.06z"/>
			</g>
		</g>
	</g>
	<g>
		<g>
			<g>
				<path class="st0" d="M185.54,342.5h-8.28v-35.55h26.87v6.6h-18.59V342.5z M184.88,322.94h17.07v6.6h-17.07V322.94z"/>
				<path class="st0" d="M220.69,342.91c-2.3,0-4.33-0.44-6.09-1.32c-1.76-0.88-3.13-2.24-4.11-4.06c-0.98-1.83-1.47-4.13-1.47-6.91
					v-15.44h7.92v14.22c0,2.3,0.48,3.99,1.45,5.05s2.33,1.6,4.09,1.6c1.22,0,2.3-0.27,3.25-0.81c0.95-0.54,1.7-1.35,2.26-2.44
					s0.84-2.44,0.84-4.06v-13.56h7.87v27.33h-7.52v-7.57l1.37,2.24c-0.95,1.9-2.3,3.33-4.06,4.29
					C224.72,342.42,222.79,342.91,220.69,342.91z"/>
				<path class="st0" d="M244.05,342.5v-27.33h7.57v7.77l-1.07-2.29c0.81-1.93,2.12-3.39,3.91-4.39c1.79-1,3.98-1.5,6.55-1.5v7.36
					c-0.3-0.07-0.6-0.12-0.89-0.15c-0.29-0.03-0.57-0.05-0.84-0.05c-2.23,0-4.01,0.63-5.33,1.88s-1.98,3.18-1.98,5.79v12.9H244.05z"
					/>
				<path class="st0" d="M282.55,314.77c2.17,0,4.11,0.43,5.82,1.29s3.06,2.18,4.04,3.96c0.98,1.78,1.47,4.06,1.47,6.83v15.64h-7.92
					v-14.42c0-2.2-0.48-3.83-1.45-4.88s-2.33-1.58-4.09-1.58c-1.25,0-2.38,0.27-3.38,0.81c-1,0.54-1.78,1.34-2.34,2.39
					c-0.56,1.05-0.84,2.44-0.84,4.17v13.51h-7.92v-27.33h7.57v7.57l-1.42-2.29c0.98-1.83,2.39-3.23,4.22-4.22
					C278.13,315.26,280.22,314.77,282.55,314.77z"/>
				<path class="st0" d="M305,311.36c-1.49,0-2.69-0.42-3.61-1.27s-1.37-1.9-1.37-3.15s0.46-2.3,1.37-3.15
					c0.91-0.85,2.12-1.27,3.61-1.27c1.46,0,2.65,0.4,3.58,1.19c0.93,0.8,1.4,1.82,1.4,3.07c0,1.32-0.46,2.41-1.37,3.28
					C307.69,310.93,306.49,311.36,305,311.36z M301.04,342.5v-27.33h7.92v27.33H301.04z"/>
				<path class="st0" d="M313.08,321.88v-6.09h18.95v6.09H313.08z M327.5,342.91c-3.22,0-5.72-0.82-7.52-2.46
					c-1.8-1.64-2.69-4.09-2.69-7.34v-23.97h7.97v23.82c0,1.15,0.3,2.05,0.89,2.69c0.59,0.64,1.4,0.97,2.41,0.97
					c1.29,0,2.37-0.34,3.25-1.02l2.08,5.59c-0.78,0.58-1.74,1.01-2.87,1.29S328.72,342.91,327.5,342.91z"/>
				<path class="st0" d="M349.95,342.91c-2.3,0-4.33-0.44-6.09-1.32c-1.76-0.88-3.13-2.24-4.11-4.06c-0.98-1.83-1.47-4.13-1.47-6.91
					v-15.44h7.92v14.22c0,2.3,0.48,3.99,1.45,5.05s2.33,1.6,4.09,1.6c1.22,0,2.3-0.27,3.25-0.81c0.95-0.54,1.7-1.35,2.26-2.44
					s0.84-2.44,0.84-4.06v-13.56h7.87v27.33h-7.52v-7.57l1.37,2.24c-0.95,1.9-2.3,3.33-4.06,4.29
					C353.98,342.42,352.05,342.91,349.95,342.91z"/>
				<path class="st0" d="M373.32,342.5v-27.33h7.57v7.77l-1.07-2.29c0.81-1.93,2.12-3.39,3.91-4.39c1.79-1,3.98-1.5,6.55-1.5v7.36
					c-0.3-0.07-0.6-0.12-0.89-0.15c-0.29-0.03-0.57-0.05-0.84-0.05c-2.23,0-4.01,0.63-5.33,1.88s-1.98,3.18-1.98,5.79v12.9H373.32z"
					/>
				<path class="st0" d="M408.77,342.91c-3.12,0-5.84-0.61-8.18-1.83c-2.34-1.22-4.15-2.89-5.43-5c-1.29-2.12-1.93-4.53-1.93-7.24
					s0.62-5.13,1.85-7.26c1.24-2.13,2.96-3.8,5.18-5c2.22-1.2,4.71-1.8,7.49-1.8c2.67,0,5.09,0.58,7.24,1.73
					c2.15,1.15,3.85,2.78,5.11,4.88c1.25,2.1,1.88,4.62,1.88,7.57c0,0.3-0.02,0.65-0.05,1.04c-0.03,0.39-0.07,0.75-0.1,1.09h-22.2
					v-4.62h18.03l-3.1,1.37c0.03-1.42-0.24-2.66-0.81-3.71c-0.58-1.05-1.37-1.87-2.39-2.46c-1.02-0.59-2.2-0.89-3.56-0.89
					c-1.36,0-2.55,0.3-3.58,0.89c-1.03,0.59-1.84,1.42-2.41,2.49s-0.86,2.33-0.86,3.78v1.22c0,1.52,0.34,2.84,1.02,3.96
					s1.61,1.97,2.79,2.56c1.18,0.59,2.61,0.89,4.27,0.89c1.42,0,2.68-0.22,3.78-0.66c1.1-0.44,2.11-1.1,3.02-1.98l4.22,4.57
					c-1.25,1.42-2.83,2.51-4.72,3.28S411.24,342.91,408.77,342.91z"/>
			</g>
		</g>
	</g>
</g>
</svg>
